<svg width="100" height="40" viewBox="0 0 120 72" fill="none" xmlns="http://www.w3.org/2000/svg">
<path d="M33.8015 26.062C33.8015 27.5387 33.9612 28.7361 34.2406 29.6141C34.5599 30.4922 34.959 31.45 35.5177 32.4877C35.7173 32.807 35.7971 33.1263 35.7971 33.4057C35.7971 33.8048 35.5576 34.2039 35.0388 34.603L32.5244 36.2793C32.1652 36.5188 31.806 36.6385 31.4867 36.6385C31.0876 36.6385 30.6885 36.4389 30.2894 36.0797C29.7306 35.4811 29.2517 34.8425 28.8526 34.2039C28.4535 33.5254 28.0544 32.7671 27.6153 31.8492C24.5023 35.521 20.591 37.3569 15.8815 37.3569C12.5289 37.3569 9.85491 36.399 7.89926 34.4833C5.94362 32.5676 4.94584 30.0132 4.94584 26.8203C4.94584 23.4279 6.14318 20.674 8.57775 18.5986C11.0123 16.5232 14.2451 15.4856 18.356 15.4856C19.7129 15.4856 21.1098 15.6053 22.5865 15.8048C24.0632 16.0044 25.5799 16.3237 27.1763 16.6829V13.7694C27.1763 10.7361 26.5377 8.62082 25.3005 7.38358C24.0233 6.14633 21.8681 5.54766 18.795 5.54766C17.3981 5.54766 15.9613 5.7073 14.4846 6.06651C13.0079 6.42571 11.5711 6.86473 10.1742 7.42349C9.53562 7.70287 9.05668 7.86251 8.77731 7.94233C8.49793 8.02216 8.29837 8.06207 8.13873 8.06207C7.57997 8.06207 7.3006 7.66295 7.3006 6.82482V4.86917C7.3006 4.23059 7.38042 3.75165 7.57997 3.47228C7.77953 3.1929 8.13873 2.91352 8.69748 2.63414C10.0944 1.91574 11.7706 1.31707 13.7263 0.838136C15.6819 0.31929 17.7573 0.0798224 19.9524 0.0798224C24.7018 0.0798224 28.1741 1.15743 30.4091 3.31263C32.6042 5.46784 33.7217 8.74056 33.7217 13.1308V26.062H33.8015ZM17.5977 32.1285C18.9147 32.1285 20.2717 31.8891 21.7085 31.4101C23.1453 30.9312 24.4224 30.0532 25.5 28.8558C26.1386 28.0975 26.6176 27.2594 26.857 26.3015C27.0965 25.3436 27.2561 24.1862 27.2561 22.8292V21.1529C26.0987 20.8736 24.8615 20.6341 23.5843 20.4745C22.3072 20.3148 21.0699 20.235 19.8327 20.235C17.1586 20.235 15.203 20.7538 13.8859 21.8314C12.5689 22.909 11.9303 24.4257 11.9303 26.4212C11.9303 28.2971 12.4092 29.694 13.407 30.6518C14.3649 31.6496 15.7617 32.1285 17.5977 32.1285ZM49.6462 36.4389C48.9278 36.4389 48.4489 36.3192 48.1296 36.0398C47.8103 35.8004 47.531 35.2416 47.2915 34.4833L37.9124 3.63192C37.6729 2.8337 37.5532 2.31485 37.5532 2.03547C37.5532 1.39689 37.8725 1.03769 38.511 1.03769H42.4223C43.1806 1.03769 43.6995 1.15743 43.9789 1.4368C44.2982 1.67627 44.5376 2.23503 44.7771 2.99334L51.4821 29.4146L57.7083 2.99334C57.9078 2.19512 58.1473 1.67627 58.4666 1.4368C58.7859 1.19734 59.3446 1.03769 60.063 1.03769H63.2559C64.0142 1.03769 64.5331 1.15743 64.8523 1.4368C65.1716 1.67627 65.451 2.23503 65.6107 2.99334L71.9166 29.7339L78.8212 2.99334C79.0607 2.19512 79.3401 1.67627 79.6194 1.4368C79.9387 1.19734 80.4576 1.03769 81.176 1.03769H84.8877C85.5263 1.03769 85.8855 1.35698 85.8855 2.03547C85.8855 2.23503 85.8456 2.43458 85.8057 2.67405C85.7657 2.91352 85.6859 3.23281 85.5263 3.67183L75.9077 34.5232C75.6682 35.3214 75.3889 35.8403 75.0696 36.0797C74.7503 36.3192 74.2315 36.4789 73.553 36.4789H70.1206C69.3623 36.4789 68.8435 36.3591 68.5242 36.0797C68.2049 35.8004 67.9255 35.2815 67.7659 34.4833L61.5796 8.74056L55.4333 34.4434C55.2338 35.2416 54.9943 35.7605 54.675 36.0398C54.3557 36.3192 53.797 36.4389 53.0786 36.4389H49.6462ZM100.932 37.5165C98.8566 37.5165 96.7812 37.2771 94.7857 36.7981C92.7901 36.3192 91.2336 35.8004 90.1959 35.2017C89.5573 34.8425 89.1183 34.4434 88.9586 34.0842C88.799 33.725 88.7192 33.3259 88.7192 32.9667V30.9312C88.7192 30.0931 89.0385 29.694 89.6371 29.694C89.8766 29.694 90.1161 29.7339 90.3555 29.8137C90.595 29.8935 90.9542 30.0532 91.3533 30.2128C92.7103 30.8115 94.187 31.2904 95.7435 31.6097C97.34 31.929 98.8965 32.0886 100.493 32.0886C103.007 32.0886 104.963 31.6496 106.32 30.7716C107.677 29.8935 108.395 28.6163 108.395 26.98C108.395 25.8625 108.036 24.9445 107.318 24.1862C106.599 23.4279 105.242 22.7494 103.287 22.1108L97.4996 20.3148C94.5861 19.3969 92.4309 18.0399 91.1138 16.2439C89.7968 14.4878 89.1183 12.5321 89.1183 10.4567C89.1183 8.78047 89.4775 7.30375 90.1959 6.0266C90.9143 4.74944 91.8721 3.63192 93.0695 2.75387C94.2668 1.83592 95.6238 1.15743 97.2202 0.678491C98.8167 0.199556 100.493 0 102.249 0C103.127 0 104.045 0.0399112 104.923 0.159645C105.841 0.279379 106.679 0.439023 107.517 0.598668C108.315 0.798224 109.074 0.997781 109.792 1.23725C110.511 1.47672 111.069 1.71618 111.468 1.95565C112.027 2.27494 112.426 2.59423 112.666 2.95343C112.905 3.27272 113.025 3.71174 113.025 4.2705V6.14633C113.025 6.98446 112.706 7.42349 112.107 7.42349C111.788 7.42349 111.269 7.26384 110.59 6.94455C108.315 5.90686 105.761 5.38802 102.928 5.38802C100.653 5.38802 98.8566 5.74722 97.6193 6.50553C96.3821 7.26384 95.7435 8.42127 95.7435 10.0576C95.7435 11.1751 96.1426 12.133 96.9408 12.8913C97.7391 13.6496 99.2158 14.408 101.331 15.0864L106.998 16.8825C109.872 17.8004 111.947 19.0776 113.185 20.7139C114.422 22.3503 115.021 24.2261 115.021 26.3015C115.021 28.0177 114.661 29.5742 113.983 30.9312C113.264 32.2882 112.307 33.4855 111.069 34.4434C109.832 35.4412 108.355 36.1596 106.639 36.6784C104.843 37.2372 102.967 37.5165 100.932 37.5165Z" fill="#221F1F"/>
<path fill-rule="evenodd" clip-rule="evenodd" d="M108.491 56.9131C95.3603 66.6116 76.2828 71.7601 59.8794 71.7601C36.8906 71.7601 16.1768 63.259 0.531622 49.1304C-0.705621 48.0129 0.411889 46.4963 1.8886 47.3744C18.8109 57.1925 39.6844 63.1393 61.2763 63.1393C75.8438 63.1393 91.8481 60.106 106.575 53.8799C108.77 52.8821 110.646 55.3167 108.491 56.9131Z" fill="#FF9900"/>
<path fill-rule="evenodd" clip-rule="evenodd" d="M113.958 50.6865C112.282 48.5313 102.863 49.6488 98.5921 50.1677C97.315 50.3273 97.1154 49.2098 98.2728 48.3717C105.776 43.1034 118.109 44.62 119.545 46.3761C120.982 48.1721 119.146 60.5047 112.122 66.4115C111.044 67.3295 110.007 66.8506 110.486 65.6532C112.082 61.702 115.634 52.8018 113.958 50.6865Z" fill="#FF9900"/>
</svg>
