<svg width="100" height="40" viewBox="0 0 164 40" fill="none" xmlns="http://www.w3.org/2000/svg">
<path d="M161.143 34.5415C160.428 34.5484 159.744 34.8382 159.242 35.3475C158.74 35.8569 158.46 36.5444 158.464 37.2596C158.467 37.9748 158.754 38.6595 159.261 39.164C159.768 39.6685 160.454 39.9518 161.169 39.9518C161.884 39.9518 162.57 39.6685 163.077 39.164C163.584 38.6595 163.871 37.9748 163.874 37.2596C163.878 36.5444 163.598 35.8569 163.096 35.3475C162.593 34.8382 161.91 34.5484 161.195 34.5415H161.143ZM161.143 39.6421C160.674 39.6499 160.213 39.5184 159.819 39.2643C159.424 39.0101 159.114 38.6448 158.927 38.2144C158.741 37.784 158.686 37.3079 158.77 36.8463C158.853 36.3847 159.072 35.9583 159.398 35.6211C159.725 35.2839 160.143 35.051 160.602 34.9518C161.061 34.8526 161.538 34.8916 161.975 35.0639C162.411 35.2362 162.786 35.534 163.054 35.9197C163.321 36.3054 163.467 36.7617 163.475 37.2308V37.2706C163.488 37.8859 163.257 38.4813 162.831 38.9258C162.405 39.3703 161.82 39.6275 161.205 39.6408H161.144M150.759 33.8024H144.88V24.5969C144.88 22.4017 144.841 19.5759 141.823 19.5759C138.762 19.5759 138.293 21.9676 138.293 24.4371V33.8018H132.415V14.8715H138.058V17.4585H138.137C138.702 16.4929 139.518 15.6986 140.498 15.1601C141.479 14.6216 142.587 14.3592 143.705 14.4006C149.663 14.4006 150.761 18.3195 150.761 23.4176L150.759 33.8024ZM125.782 12.2839C125.108 12.284 124.448 12.0841 123.887 11.7093C123.326 11.3346 122.889 10.8019 122.631 10.1787C122.372 9.55538 122.305 8.86952 122.436 8.20779C122.568 7.54606 122.892 6.93818 123.369 6.46103C123.846 5.98388 124.454 5.65888 125.116 5.52714C125.777 5.3954 126.463 5.46283 127.087 5.72091C127.71 5.97898 128.243 6.41611 128.618 6.97701C128.993 7.53791 129.193 8.19739 129.193 8.87207C129.193 9.32003 129.105 9.76363 128.934 10.1775C128.762 10.5914 128.511 10.9675 128.194 11.2843C127.878 11.6011 127.502 11.8525 127.088 12.024C126.674 12.1955 126.23 12.2838 125.782 12.2839ZM128.722 33.8024H122.837V14.8715H128.722V33.8024ZM153.689 0.00270186H119.883C119.116 -0.00595708 118.377 0.290364 117.828 0.826549C117.279 1.36273 116.965 2.09492 116.956 2.86221V36.8083C116.965 37.5759 117.278 38.3086 117.827 38.8454C118.376 39.3821 119.116 39.679 119.883 39.6708H153.689C154.458 39.6805 155.2 39.3844 155.751 38.8477C156.302 38.311 156.618 37.5775 156.628 36.8083V2.85976C156.617 2.09095 156.302 1.35793 155.751 0.82176C155.199 0.285588 154.458 -0.00988707 153.689 0.000252608M100.957 19.4406C98.0177 19.4406 96.2542 21.4031 96.2542 24.2626C96.2542 27.1221 98.0171 29.0864 100.957 29.0864C103.896 29.0864 105.664 27.127 105.664 24.2626C105.664 21.3982 103.9 19.4406 100.957 19.4406ZM111.075 33.7914H105.664V31.2809H105.583C104.905 32.1941 104.024 32.9381 103.01 33.4552C101.997 33.9722 100.877 34.2482 99.7395 34.2617C94.0915 34.2617 90.3711 30.1855 90.3711 24.4212C90.3711 19.1271 93.6635 14.2659 99.0757 14.2659C101.508 14.2659 103.781 14.9315 105.114 16.7764H105.191V5.86438H111.075L111.075 33.7914ZM82.8237 22.128C82.835 21.6511 82.7493 21.1769 82.5719 20.7341C82.3945 20.2913 82.129 19.8891 81.7916 19.5519C81.4541 19.2147 81.0518 18.9495 80.6088 18.7724C80.1659 18.5953 79.6916 18.5099 79.2148 18.5215C78.1877 18.4576 77.1766 18.7999 76.3996 19.4745C75.6225 20.1492 75.1417 21.1022 75.0608 22.128H82.8237ZM87.8031 30.5167C86.8263 31.7013 85.5982 32.6537 84.208 33.3051C82.8177 33.9565 81.2999 34.2906 79.7646 34.2831C73.8864 34.2831 69.1802 30.3594 69.1802 24.2834C69.1802 18.2074 73.8858 14.2855 79.7646 14.2855C85.2589 14.2855 88.7044 18.2043 88.7044 24.2834V26.1265H75.0608C75.2307 27.1717 75.7726 28.1204 76.5867 28.7976C77.4008 29.4749 78.4322 29.8351 79.4909 29.812C80.3276 29.8068 81.1497 29.5924 81.8823 29.1884C82.615 28.7843 83.235 28.2035 83.6859 27.4986L87.8031 30.5167ZM29.3675 14.8666H35.0124V17.4536H35.0927C35.6565 16.4877 36.4721 15.6929 37.4524 15.1544C38.4327 14.6158 39.5409 14.3536 40.6586 14.3957C46.6195 14.3957 47.7167 18.3176 47.7167 23.4127V33.7938H41.8385V24.5902C41.8385 22.3932 41.7981 19.5692 38.777 19.5692C35.7215 19.5692 35.25 21.9615 35.25 24.4303V33.7914H29.3718L29.3675 14.8666ZM50.6975 5.86622H56.5757V22.561L63.2377 14.8562H70.4446L62.7294 23.6203L70.2823 33.803H62.8941L56.6541 24.4457H56.5769V33.8018H50.6987L50.6975 5.86622ZM20.23 14.8648H26.1082V33.7951H20.23V14.8648ZM23.1691 5.45352C23.8435 5.45364 24.5027 5.65373 25.0634 6.0285C25.6241 6.40327 26.0611 6.93587 26.319 7.55898C26.577 8.18208 26.6445 8.86769 26.5128 9.52912C26.3812 10.1906 26.0564 10.7981 25.5795 11.2749C25.1025 11.7518 24.4949 12.0765 23.8335 12.208C23.172 12.3395 22.4864 12.272 21.8634 12.0138C21.2403 11.7557 20.7078 11.3187 20.3331 10.7579C19.9585 10.1972 19.7585 9.5379 19.7585 8.86349C19.7585 8.41564 19.8467 7.97217 20.0181 7.55841C20.1895 7.14465 20.4408 6.76871 20.7575 6.45206C21.0742 6.13541 21.4502 5.88424 21.864 5.71291C22.2777 5.54158 22.7212 5.45344 23.1691 5.45352ZM0.078125 5.8705H6.19697V28.1587H17.5248V33.8055H0.078125V5.8705ZM161.572 37.4181C161.673 37.4191 161.773 37.3994 161.865 37.3603C161.958 37.3211 162.042 37.2633 162.111 37.1904C162.181 37.1176 162.235 37.0312 162.269 36.9367C162.304 36.8422 162.319 36.7416 162.313 36.6411C162.313 36.09 161.981 35.8267 161.298 35.8267H160.196V38.7119H160.611V37.4543H161.12L161.132 37.4696L161.922 38.7119H162.366L161.515 37.4261L161.572 37.4181ZM161.093 37.1291H160.612V36.1537H161.221C161.536 36.1537 161.895 36.2051 161.895 36.6172C161.895 37.0912 161.532 37.1291 161.09 37.1291" fill="#2867B2"/>
</svg>
