<svg width="100" height="40" viewBox="0 0 160 40" fill="none" xmlns="http://www.w3.org/2000/svg">
    <path d="M63.1429 23.4286L71.9714 34.2857H65L57.1429 24.3143V34.2857H51.4286V5.71429H57.1429V22.5143L64.4 14.2857H71.6857L63.1429 23.4286ZM40.2857 13.7143C37.746 13.7523 35.3864 15.0335 33.9714 17.1429V14.2857H28.5714V34.2857H34.2857V24.9429C34.134 23.5721 34.5586 22.1999 35.4579 21.1542C36.3572 20.1086 37.6505 19.4836 39.0286 19.4286C42.3429 19.4286 42.8571 22.6857 42.8571 24.9429V34.2857H48.5714V23.6857C48.5714 17.4 46.4857 13.7143 40.4 13.7143H40.2857ZM91.4286 24.7429C91.4504 25.1616 91.4504 25.5812 91.4286 26H76.4286V26.2C76.9315 28.6612 79.1474 30.3927 81.6571 30.2857C83.6046 30.3704 85.5027 29.6586 86.9143 28.3143L90.7143 31.1714C88.2788 33.6568 84.9055 34.9957 81.4286 34.8571C78.5475 35.0393 75.7289 33.9639 73.7013 31.909C71.6738 29.854 70.6363 27.0212 70.8571 24.1429C70.798 21.304 71.9216 18.5683 73.959 16.5906C75.9963 14.6128 78.7642 13.5709 81.6 13.7143C86.9714 13.7143 91.4286 17.5143 91.4286 24.7429ZM86.1143 22.2857C86.0719 21.142 85.5614 20.0659 84.7024 19.3096C83.8434 18.5532 82.7113 18.183 81.5714 18.2857C79.059 18.0141 76.7837 19.7837 76.4286 22.2857H86.1143ZM5.71429 5.71429H0V34.2857H17.1429V28.5714H5.71429V5.71429ZM108.571 5.71429H114.286V34.2857H108.886V32.2857C107.495 33.9988 105.376 34.9526 103.171 34.8571C100.487 34.7882 97.9505 33.6146 96.1603 31.6134C94.37 29.6122 93.4851 26.961 93.7143 24.2857C93.4415 21.6056 94.3073 18.9341 96.1005 16.9236C97.8937 14.9131 100.449 13.7485 103.143 13.7143C105.147 13.6265 107.103 14.3471 108.571 15.7143V5.71429ZM109 24.2857C109.182 22.9508 108.777 21.6026 107.889 20.589C107.002 19.5755 105.719 18.9959 104.371 19C101.638 19.1985 99.567 21.5491 99.7143 24.2857C99.567 27.0223 101.638 29.373 104.371 29.5714C105.719 29.5755 107.002 28.9959 107.889 27.9824C108.777 26.9688 109.182 25.6206 109 24.2857ZM22.8571 5.14286C20.9508 5.16999 19.3906 6.66779 19.2857 8.57143C19.2857 10.5439 20.8847 12.1429 22.8571 12.1429C24.8296 12.1429 26.4286 10.5439 26.4286 8.57143C26.3237 6.66779 24.7635 5.16999 22.8571 5.14286ZM20 34.2857H25.7143V14.2857H20V34.2857ZM160 2.85714V37.1429C160 38.7208 158.721 40 157.143 40H122.857C121.279 40 120 38.7208 120 37.1429V2.85714C120 1.27919 121.279 0 122.857 0H157.143C158.721 0 160 1.27919 160 2.85714ZM131.429 14.2857H125.714V34.2857H131.429V14.2857ZM132.143 8.57143C132.143 6.59898 130.544 5 128.571 5C126.599 5 125 6.59898 125 8.57143C125 10.5439 126.599 12.1429 128.571 12.1429C130.544 12.1429 132.143 10.5439 132.143 8.57143ZM154.286 23.6857C154.286 17.4 152.2 13.7143 146.114 13.7143C143.534 13.7146 141.123 15.0002 139.686 17.1429V14.2857H134.286V34.2857H140V24.9429C139.848 23.5721 140.273 22.1999 141.172 21.1542C142.072 20.1086 143.365 19.4836 144.743 19.4286C148.057 19.4286 148.571 22.6857 148.571 24.9429V34.2857H154.286V23.6857Z" fill="#0A66C2"/>
</svg>
