<svg width="100" height="40" viewBox="0 0 160 56" fill="none" xmlns="http://www.w3.org/2000/svg">
<path fill-rule="evenodd" clip-rule="evenodd" d="M145.688 24.2552C145.551 24.2827 145.414 24.5845 145.414 24.749C145.386 25.846 145.359 28.7535 145.359 30.7282C145.359 30.7831 145.441 30.8927 145.523 30.8927C145.935 30.9201 146.922 30.9476 147.772 30.9476C148.952 30.9476 149.637 30.7831 150.021 30.6186C151.009 30.1249 151.475 29.055 151.475 27.8756C151.475 25.2152 149.61 24.2003 146.84 24.2003C146.648 24.1731 146.099 24.1731 145.688 24.2552ZM152.764 36.5154C152.764 33.8002 150.762 32.2915 147.141 32.2915C146.977 32.2915 145.825 32.264 145.551 32.319C145.468 32.3464 145.359 32.4013 145.359 32.4837C145.359 34.4309 145.331 37.5304 145.414 38.737C145.468 39.2582 145.852 39.9988 146.319 40.2182C146.812 40.4925 147.937 40.5472 148.705 40.5472C150.872 40.5472 152.764 39.3406 152.764 36.5154ZM140.093 22.7468C140.367 22.7468 141.19 22.8289 143.302 22.8289C145.304 22.8289 146.895 22.7743 148.842 22.7743C151.228 22.7743 154.52 23.6245 154.52 27.1899C154.52 28.9455 153.285 30.3443 151.667 31.03C151.585 31.0574 151.585 31.1121 151.667 31.1395C153.971 31.7156 156.001 33.1419 156.001 35.8298C156.001 38.4629 154.355 40.1358 151.969 41.1782C150.515 41.809 148.705 42.0284 146.867 42.0284C145.468 42.0284 141.711 41.8639 139.626 41.9188C139.407 41.8364 139.818 40.849 140.01 40.6845C140.504 40.657 140.888 40.6296 141.409 40.4651C142.15 40.2731 142.232 40.0537 142.342 38.9292C142.397 37.9692 142.397 34.568 142.397 32.1545C142.397 28.8356 142.424 26.5866 142.397 25.4896C142.369 24.6394 142.067 24.3651 141.464 24.2003C140.998 24.1182 140.23 24.0084 139.599 23.9262C139.462 23.789 139.928 22.8564 140.093 22.7468ZM124.267 39.8068C124.925 40.3278 126.214 40.5472 127.366 40.5472C128.847 40.5472 130.328 40.2731 131.755 38.9839C133.208 37.6674 134.223 35.6378 134.223 32.4013C134.223 29.3019 133.044 26.7786 130.63 25.2976C129.259 24.4472 127.503 24.0907 125.474 24.0907C124.87 24.0907 124.294 24.1182 123.938 24.2827C123.855 24.3376 123.663 24.5845 123.663 24.7215C123.609 25.2702 123.609 29.4938 123.609 31.9625C123.609 34.5133 123.609 38.0788 123.663 38.4901C123.663 38.9017 123.855 39.5325 124.267 39.8068ZM118.041 22.7468C118.562 22.7468 120.564 22.8289 121.524 22.8289C123.252 22.8289 124.486 22.7468 127.75 22.7468C130.493 22.7468 132.797 23.4874 134.442 24.886C136.445 26.6141 137.487 29.0004 137.487 31.9076C137.487 36.0492 135.594 38.4355 133.702 39.8068C131.81 41.2057 129.341 42.0284 125.83 42.0284C123.965 42.0284 120.756 41.9735 118.096 41.946H118.068C117.931 41.6994 118.288 40.7394 118.507 40.7119C119.22 40.6296 119.412 40.6021 119.769 40.4651C120.345 40.2457 120.454 39.9439 120.537 38.9292C120.619 37.0366 120.591 34.7602 120.591 32.1819C120.591 30.3443 120.619 26.7511 120.564 25.5991C120.482 24.6394 120.071 24.3925 119.248 24.2278C118.836 24.1457 118.288 24.0358 117.52 23.9537C117.41 23.7615 117.904 22.9113 118.041 22.7468Z" fill="#8E714E"/>
<path fill-rule="evenodd" clip-rule="evenodd" d="M84.853 40.8776C84.1673 40.7952 83.6735 40.6856 83.07 40.4113C82.9879 40.3564 82.8506 40.0823 82.8506 39.9725C82.7956 39.0125 82.7956 36.2697 82.7956 34.4321C82.7956 32.9509 82.549 31.6619 81.918 30.7568C81.1774 29.7144 80.1078 29.1111 78.7365 29.1111C77.5296 29.1111 75.9113 29.9341 74.5674 31.086C74.54 31.1132 74.3206 31.3054 74.348 31.0036C74.348 30.7019 74.4029 30.0986 74.4304 29.6872C74.4578 29.303 74.2384 29.1111 74.2384 29.1111C73.3605 29.5499 70.8921 30.126 69.987 30.2081C69.3288 30.3454 69.1643 30.9762 69.85 31.1956H69.8775C70.6178 31.415 71.1115 31.6619 71.4954 31.9087C71.7698 32.1281 71.7423 32.4299 71.7423 32.6768C71.7698 34.7339 71.7698 37.888 71.6876 39.616C71.6602 40.3017 71.4682 40.5483 70.9745 40.6582L71.0292 40.6307C70.6453 40.7131 70.3435 40.7952 69.8772 40.8501C69.7127 41.0146 69.7127 41.8925 69.8772 42.0844C70.179 42.0844 71.7698 42.0021 73.0865 42.0021C74.8967 42.0021 75.8292 42.0844 76.2955 42.0844C76.4874 41.865 76.5424 41.0421 76.4325 40.8501C75.9113 40.8226 75.5274 40.768 75.171 40.6582C74.6773 40.5483 74.54 40.3017 74.5125 39.7256C74.4578 38.2719 74.4578 35.2001 74.4578 33.1156C74.4578 32.5395 74.6223 32.2652 74.7868 32.1007C75.4176 31.5523 76.4325 31.1681 77.3376 31.1681C78.2153 31.1681 78.7914 31.4425 79.2302 31.7992C79.8335 32.2926 80.0254 33.0058 80.1078 33.527C80.2449 34.7064 80.1902 37.0378 80.1902 39.0674C80.1902 40.1644 80.1078 40.4387 79.6965 40.5758C79.5045 40.6582 79.0108 40.768 78.4347 40.8226C78.2427 41.0146 78.2976 41.865 78.4347 42.057C79.2302 42.057 80.1627 41.9746 81.5341 41.9746C83.2345 41.9746 84.3318 42.057 84.7706 42.057C84.9076 41.8925 84.9625 41.097 84.8527 40.8776H84.853ZM92.4504 30.4003C90.9967 30.4003 90.0916 31.5248 90.0916 33.2801C90.0916 35.0628 90.8868 37.1199 93.1361 37.1199C93.52 37.1199 94.2331 36.9554 94.5621 36.5715C95.0833 36.0778 95.44 35.0903 95.44 34.0482C95.44 31.7717 94.3153 30.4003 92.4504 30.4003ZM92.2582 42.5233C91.7098 42.5233 91.3256 42.6878 91.079 42.825C89.9268 43.5654 89.4059 44.2785 89.4059 45.129C89.4059 45.9242 89.7074 46.555 90.3659 47.1036C91.1612 47.7893 92.2582 48.1186 93.657 48.1186C96.4547 48.1186 97.689 46.6099 97.689 45.129C97.689 44.0866 97.1678 43.4009 96.0982 43.017C95.3302 42.6878 93.9314 42.5233 92.2582 42.5233ZM92.4504 49.6544C90.7773 49.6544 89.5704 49.2977 88.5283 48.5025C87.5133 47.7344 87.0745 46.5825 87.0745 45.7872C87.0745 45.5678 87.1294 44.9642 87.6232 44.4158C87.9247 44.0866 88.5829 43.4558 90.1465 42.3862C90.2011 42.3588 90.2286 42.3313 90.2286 42.2764C90.2286 42.2215 90.1737 42.1666 90.119 42.1394C88.8298 41.6456 88.4459 40.8501 88.336 40.4113V40.3564C88.3088 40.1919 88.2539 40.0274 88.5008 39.8626C88.6927 39.7256 88.9671 39.5611 89.2686 39.3692C89.7349 39.0948 90.2286 38.7931 90.5304 38.5462C90.5853 38.4913 90.5853 38.4366 90.5853 38.3817C90.5853 38.3268 90.5304 38.2719 90.4755 38.2447C88.5557 37.6136 87.5957 36.1873 87.5957 34.0482C87.5957 32.6493 88.2265 31.3875 89.351 30.5923C90.119 29.9887 92.0388 29.2484 93.3006 29.2484H93.383C94.672 29.2756 95.3851 29.5499 96.3998 29.9066C96.9484 30.0986 97.4696 30.1807 98.1828 30.1807C99.2523 30.1807 99.7186 29.8517 100.103 29.4678C100.13 29.5224 100.185 29.6597 100.212 30.0162C100.24 30.3729 100.13 30.8938 99.8557 31.278C99.6362 31.5795 99.1428 31.7992 98.649 31.7992H98.5117C98.018 31.7442 97.7986 31.6893 97.7986 31.6893L97.689 31.7442C97.6616 31.7992 97.689 31.8538 97.7165 31.9362L97.7439 31.9911C97.7986 32.238 97.9084 32.9783 97.9084 33.1705C97.9084 35.4195 97.0033 36.4068 96.0433 37.1474C95.1108 37.833 94.0412 38.2719 92.8343 38.3817C92.8068 38.3817 92.6973 38.3817 92.4504 38.4091C92.3131 38.4091 92.1212 38.4366 92.0937 38.4366H92.0662C91.8468 38.4913 91.2984 38.7656 91.2984 39.2319C91.2984 39.6432 91.5453 40.137 92.7245 40.2193C92.9713 40.2468 93.2182 40.2468 93.4925 40.2743C95.0559 40.3838 97.0033 40.5211 97.9084 40.8226C99.17 41.2889 99.9655 42.4134 99.9655 43.7576C99.9655 45.7872 98.5117 47.6798 96.0982 48.8589C94.9188 49.3801 93.7394 49.6544 92.4504 49.6544ZM108.084 30.5374C107.508 30.5374 106.987 30.6744 106.603 30.9487C105.533 31.607 104.985 32.9237 104.985 34.8434C104.985 38.4366 106.795 40.9599 109.373 40.9599C110.141 40.9599 110.744 40.7405 111.266 40.3017C112.061 39.6432 112.473 38.3268 112.473 36.4891C112.473 32.9237 110.69 30.5374 108.084 30.5374ZM108.578 42.2764C103.915 42.2764 102.242 38.848 102.242 35.639C102.242 33.3899 103.147 31.6619 104.957 30.4275C106.246 29.6323 107.782 29.1935 109.154 29.1935C112.719 29.1935 115.215 31.7442 115.215 35.4195C115.215 37.9154 114.228 39.8901 112.335 41.097C111.43 41.7003 109.867 42.2764 108.578 42.2764H108.578ZM59.7018 30.5374C59.1256 30.5374 58.6047 30.6744 58.2206 30.9487C57.151 31.607 56.6023 32.9237 56.6023 34.8434C56.6023 38.4366 58.4125 40.9599 60.9908 40.9599C61.7588 40.9599 62.3621 40.7405 62.8833 40.3017C63.6786 39.6432 64.0902 38.3268 64.0902 36.4891C64.0902 32.9237 62.3347 30.5374 59.7018 30.5374ZM60.1955 42.2764C55.5327 42.2764 53.8596 38.848 53.8596 35.639C53.8596 33.3899 54.7647 31.6619 56.5749 30.4275C57.8641 29.6323 59.4 29.1935 60.7713 29.1935C64.3371 29.1935 66.8329 31.7442 66.8329 35.4195C66.8329 37.9154 65.8455 39.8901 63.9529 41.097C63.0753 41.7003 61.5119 42.2764 60.1955 42.2764ZM28.8457 42.0021C28.7908 41.9199 28.7358 41.6731 28.7633 41.3713C28.7633 41.1519 28.8182 41.0146 28.8457 40.9599C29.4215 40.8776 29.7233 40.7952 30.0523 40.7131C30.6009 40.5758 30.8204 40.2743 30.8478 39.5886C30.9302 37.9429 30.9302 34.816 30.9027 32.6493V32.5944C30.9027 32.3476 30.9027 32.0458 30.6009 31.8264C30.1621 31.5523 29.6409 31.3054 28.9552 31.1132C28.7084 31.0311 28.5439 30.8938 28.5713 30.7293C28.5713 30.5648 28.7358 30.3729 29.0925 30.318C29.9976 30.2356 32.3562 29.6597 33.2888 29.2484C33.3437 29.303 33.4261 29.4678 33.4261 29.6872L33.3986 29.9887C33.3711 30.2905 33.3437 30.6472 33.3437 31.0036C33.3437 31.1132 33.4535 31.1956 33.5631 31.1956C33.618 31.1956 33.6729 31.1681 33.7278 31.1407C35.4831 29.7693 37.0739 29.2756 37.8966 29.2756C39.2408 29.2756 40.2829 29.9066 41.0784 31.2231C41.1331 31.3054 41.188 31.3326 41.2704 31.3326C41.3253 31.3326 41.4074 31.3054 41.4349 31.2505C43.0531 30.0162 44.6713 29.2756 45.7409 29.2756C48.2917 29.2756 49.8004 31.1681 49.8004 34.3772C49.8004 35.2823 49.8004 36.4617 49.7729 37.5315C49.7729 38.4913 49.7455 39.3692 49.7455 39.9999C49.7455 40.137 49.9374 40.5758 50.2392 40.6582C50.6231 40.8501 51.1443 40.9325 51.83 41.0421H51.8574C51.9124 41.234 51.8025 41.9472 51.6929 42.0844C51.5282 42.0844 51.2813 42.0844 51.0073 42.057C50.4861 42.0295 49.7455 42.0021 48.9227 42.0021C47.2221 42.0021 46.3445 42.0295 45.4941 42.0844C45.4394 41.865 45.4119 41.2068 45.4941 41.0421C45.9878 40.9599 46.2347 40.8776 46.5365 40.7952C47.0851 40.6307 47.2221 40.3838 47.2496 39.6707C47.2496 39.1498 47.3592 34.7064 47.1947 33.6366C47.0302 32.5395 46.2072 31.2505 44.397 31.2505C43.7113 31.2505 42.6417 31.5248 41.5994 32.3201C41.5447 32.375 41.4898 32.5121 41.4898 32.5944V32.6219C41.5994 33.1977 41.5994 33.8562 41.5994 34.8709V36.6536C41.5994 37.888 41.5719 39.0399 41.5994 39.9176C41.5994 40.5211 41.9561 40.6582 42.2578 40.768C42.4223 40.7952 42.5319 40.8226 42.6692 40.8501C42.9161 40.905 43.1629 40.9599 43.5468 41.0421C43.6018 41.1519 43.6018 41.5083 43.5194 41.8101C43.4919 41.9746 43.437 42.057 43.4098 42.0844C42.4773 42.057 41.5172 42.0295 40.1184 42.0295C39.7071 42.0295 38.9939 42.057 38.3903 42.057C37.8966 42.057 37.4303 42.0844 37.1563 42.0844C37.1288 42.0295 37.0739 41.8376 37.0739 41.5358C37.0739 41.2889 37.1288 41.097 37.1837 41.0421C37.3208 41.0146 37.4303 40.9874 37.5676 40.9874C37.8966 40.9325 38.1709 40.8776 38.4453 40.8226C38.9115 40.6856 39.076 40.4387 39.1035 39.8354C39.1859 38.4641 39.268 34.5419 39.076 33.5544C38.747 31.9637 37.842 31.1681 36.3882 31.1681C35.538 31.1681 34.4682 31.5795 33.5906 32.238C33.4535 32.3476 33.3437 32.6219 33.3437 32.8688V34.487C33.3437 36.4617 33.3437 38.9303 33.3711 39.9999C33.3986 40.3289 33.5082 40.7131 34.1392 40.8501C34.2762 40.8776 34.4956 40.9325 34.77 40.9599L35.2637 41.0421C35.3186 41.2068 35.2912 41.865 35.1813 42.0844C34.907 42.0844 34.578 42.057 34.1939 42.057C33.618 42.0295 32.8774 42.0021 32.0547 42.0021C31.0947 42.0021 30.409 42.0295 29.8603 42.057C29.4764 42.0021 29.1747 42.0021 28.8457 42.0021Z" fill="#442D22"/>
<path fill-rule="evenodd" clip-rule="evenodd" d="M14.4181 48.5842L13.2936 48.2001C13.2936 48.2001 13.4309 42.4677 11.3739 42.0563C10.0025 40.4656 11.5933 -25.4156 16.5301 41.8369C16.5301 41.8369 14.8297 42.6871 14.528 44.1409C14.1987 45.5672 14.4181 48.5842 14.4181 48.5842Z" fill="#A6A385"/>
<path fill-rule="evenodd" clip-rule="evenodd" d="M15.021 43.0442C15.021 43.0442 24.8675 36.5713 22.5636 23.1042C20.342 13.3127 15.1032 10.1036 14.5273 8.86931C13.8965 7.99167 13.293 6.45581 13.293 6.45581L13.7046 33.6913C13.7046 33.7187 12.8542 42.0293 15.021 43.0442Z" fill="#499D4A"/>
<path fill-rule="evenodd" clip-rule="evenodd" d="M12.718 43.4002C12.718 43.4002 3.47484 37.0917 4.02349 25.9837C4.54443 14.8755 11.0723 9.41744 12.3338 8.42997C13.1568 7.55234 13.1843 7.22309 13.2392 6.34546C13.815 7.57979 13.7055 24.8043 13.7876 26.8339C14.0344 34.6508 13.3488 41.9192 12.718 43.4002Z" fill="#58AA50"/>
</svg>
