<svg width="100" height="40" viewBox="0 0 129 35" fill="none" xmlns="http://www.w3.org/2000/svg">
<path d="M44.9356 28.7749V14.2199H45.1949L55.7896 28.7749H59.1236V7.40064H55.4192V21.919H55.1598L44.5652 7.40064H41.2312V28.7749H44.9356ZM69.6071 29.1049C74.497 29.1049 77.4976 25.9519 77.4976 20.6725C77.4976 15.4297 74.497 12.2401 69.6071 12.2401C64.7543 12.2401 61.7167 15.4297 61.7167 20.6725C61.7537 25.9519 64.7173 29.1049 69.6071 29.1049ZM69.6071 26.0252C67.014 26.0252 65.5322 24.0821 65.5322 20.6725C65.5322 17.2995 67.014 15.3198 69.6071 15.3198C72.2002 15.3198 73.682 17.2995 73.682 20.6725C73.682 24.0821 72.2002 26.0252 69.6071 26.0252ZM80.8686 8.6105V12.68H78.2755V15.6131H80.8686V24.4487C80.8686 27.6017 82.3504 28.8483 86.1289 28.8483C86.8327 28.8483 87.5366 28.7749 88.0922 28.6649V25.8053C87.6477 25.8419 87.3513 25.8786 86.8327 25.8786C85.2769 25.8786 84.573 25.182 84.573 23.5688V15.6131H88.0922V12.68H84.573V8.6105H80.8686ZM90.3149 28.7749H94.0193V12.5701H90.3149V28.7749ZM92.1671 9.89369C93.3896 9.89369 94.3898 8.9038 94.3898 7.69393C94.3898 6.44741 93.3896 5.45752 92.1671 5.45752C90.9446 5.45752 89.9444 6.44741 89.9444 7.69393C89.9444 8.9038 90.9446 9.89369 92.1671 9.89369ZM104.169 29.1049C109.059 29.1049 112.06 25.9519 112.06 20.6725C112.06 15.4297 109.059 12.2401 104.169 12.2401C99.3166 12.2401 96.279 15.4297 96.279 20.6725C96.279 25.9519 99.2426 29.1049 104.169 29.1049ZM104.169 26.0252C101.576 26.0252 100.095 24.0821 100.095 20.6725C100.095 17.2995 101.576 15.3198 104.169 15.3198C106.726 15.3198 108.244 17.2995 108.244 20.6725C108.207 24.0821 106.726 26.0252 104.169 26.0252ZM114.245 28.7749H117.95V19.3526C117.95 16.9696 119.358 15.4664 121.543 15.4664C123.803 15.4664 124.84 16.7129 124.84 19.1693V28.7749H128.545V18.2894C128.545 14.4032 126.544 12.2401 122.914 12.2401C120.469 12.2401 118.839 13.34 118.061 15.1731H117.802V12.5701H114.208C114.245 12.5701 114.245 28.7749 114.245 28.7749Z" fill="black"/>
<path fill-rule="evenodd" clip-rule="evenodd" d="M5.71206 6.03259C6.79023 6.90239 7.18021 6.83372 9.19893 6.69638L28.2162 5.55191C28.6291 5.55191 28.285 5.1399 28.1474 5.09412L24.9816 2.82806C24.3852 2.37028 23.5594 1.82093 22.0224 1.95826L3.62452 3.30874C2.95926 3.37741 2.82162 3.72075 3.0969 3.97254L5.71206 6.03259ZM6.85905 10.4502V30.4098C6.85905 31.4857 7.38667 31.8748 8.60249 31.8061L29.5008 30.593C30.7166 30.5243 30.8543 29.7918 30.8543 28.922V9.09977C30.8543 8.22997 30.5102 7.74929 29.7761 7.81796L7.93723 9.09977C7.13433 9.16844 6.85905 9.58045 6.85905 10.4502ZM27.4821 11.5261C27.6197 12.1212 27.4821 12.7392 26.8857 12.8079L25.8763 13.0139V27.7547C25.0046 28.2125 24.2017 28.4871 23.5135 28.4871C22.4353 28.4871 22.16 28.1438 21.3571 27.1367L14.7733 16.8135V26.7933L16.8609 27.2511C16.8609 27.2511 16.8609 28.4642 15.1863 28.4642L10.5524 28.7389C10.4148 28.4642 10.5524 27.8005 11.0112 27.6631L12.227 27.3198V14.1355L10.5524 13.9981C10.4148 13.403 10.7589 12.5332 11.6994 12.4645L16.6774 12.1212L23.5364 22.5588V13.3343L21.793 13.1283C21.6553 12.3959 22.2059 11.8465 22.8712 11.7778L27.4821 11.5261ZM2.08754 1.47759L21.2424 0.0813291C23.5823 -0.124676 24.2017 0.0126612 25.6698 1.08847L31.7719 5.36879C32.7812 6.10125 33.1253 6.30726 33.1253 7.10839V30.6159C33.1253 32.0808 32.5977 32.9506 30.7166 33.0879L8.48779 34.4384C7.06552 34.5071 6.40026 34.3011 5.66618 33.3626L1.147 27.5258C0.3441 26.45 0 25.6488 0 24.7104V3.81231C0 2.59917 0.550559 1.61492 2.08754 1.47759Z" fill="black"/>
</svg>
