<svg width="100" height="40" viewBox="0 0 118 32" fill="none" xmlns="http://www.w3.org/2000/svg">
<path d="M36.7 15.4C36.7 20.6 40.1 24.3 44.7 24.3C49.3 24.3 52.7 20.7 52.7 15.4C52.7 10.1 49.3 6.5 44.7 6.5C40.1 6.5 36.7 10.2 36.7 15.4ZM49.7 15.4C49.7 19.1 47.7 21.6 44.8 21.6C41.9 21.6 39.9 19.2 39.9 15.4C39.9 11.6 41.9 9.2 44.8 9.2C47.7 9.2 49.7 11.6 49.7 15.4Z" fill="black"/>
<path d="M61.4 24.3001C64.9 24.3001 66.9 21.3001 66.9 17.7001C66.9 14.1001 64.9 11.1001 61.4 11.1001C59.8 11.1001 58.6 11.7001 57.8 12.7001V11.4001H54.9V28.3001H57.8V22.7001C58.6 23.6001 59.8 24.3001 61.4 24.3001ZM57.7 17.4001C57.7 15.0001 59 13.7001 60.8 13.7001C62.9 13.7001 64 15.3001 64 17.7001C64 20.1001 62.9 21.7001 60.8 21.7001C59 21.7001 57.7 20.4001 57.7 18.1001V17.4001Z" fill="black"/>
<path d="M74.8 24.3002C77.3 24.3002 79.3 23.0002 80.2 20.8002L77.7 19.9002C77.3 21.2002 76.2 21.9002 74.8 21.9002C73 21.9002 71.7 20.6002 71.4 18.4002H80.2V17.4002C80.2 13.9002 78.3 11.2002 74.6 11.2002C71.1 11.2002 68.6 14.1002 68.6 17.8002C68.6 21.6002 71.2 24.3002 74.8 24.3002ZM74.6 13.6002C76.4 13.6002 77.3 14.8002 77.3 16.2002H71.5C72 14.5002 73.1 13.6002 74.6 13.6002Z" fill="black"/>
<path d="M82.4 24.0002H85.3V16.6002C85.3 14.8002 86.6 13.8002 87.9 13.8002C89.5 13.8002 90.1 14.9002 90.1 16.5002V24.0002H93V15.7002C93 13.0002 91.4 11.2002 88.8 11.2002C87.2 11.2002 86 11.9002 85.3 12.8002V11.5002H82.4V24.0002Z" fill="black"/>
<path d="M101.4 6.7998L94.9 23.9998H97.9L99.4 20.0998H106.8L108.3 23.9998H111.4L104.9 6.7998H101.4ZM103.1 10.1998L105.8 17.3998H100.4L103.1 10.1998Z" fill="black"/>
<path d="M116.4 6.7998H113.3V23.9998H116.4V6.7998Z" fill="black"/>
<path d="M29.7 13.1C30.1 12 30.2 10.9 30.1 9.8C30 8.7 29.6 7.6 29.1 6.6C28.2 5.1 26.9 3.9 25.4 3.2C23.8 2.5 22.1 2.3 20.4 2.7C19.6 1.9 18.7 1.2 17.7 0.7C16.7 0.2 15.5 0 14.4 0C12.7 0 11 0.5 9.60001 1.5C8.20001 2.5 7.20001 3.9 6.70001 5.5C5.50001 5.8 4.50001 6.3 3.50001 6.9C2.60001 7.6 1.90001 8.5 1.30001 9.4C0.400007 10.9 0.100007 12.6 0.300007 14.3C0.500007 16 1.20001 17.6 2.30001 18.9C1.90001 20 1.80001 21.1 1.90001 22.2C2.00001 23.3 2.40001 24.4 2.90001 25.4C3.80001 26.9 5.10001 28.1 6.60001 28.8C8.20001 29.5 9.90001 29.7 11.6 29.3C12.4 30.1 13.3 30.8 14.3 31.3C15.3 31.8 16.5 32 17.6 32C19.3 32 21 31.5 22.4 30.5C23.8 29.5 24.8 28.1 25.3 26.5C26.4 26.3 27.5 25.8 28.4 25.1C29.3 24.4 30.1 23.6 30.6 22.6C31.5 21.1 31.8 19.4 31.6 17.7C31.4 16 30.8 14.4 29.7 13.1ZM17.7 29.9C16.1 29.9 14.9 29.4 13.8 28.5C13.8 28.5 13.9 28.4 14 28.4L20.4 24.7C20.6 24.6 20.7 24.5 20.8 24.3C20.9 24.1 20.9 24 20.9 23.8V14.8L23.6 16.4V23.8C23.7 27.3 20.9 29.9 17.7 29.9ZM4.80001 24.4C4.10001 23.2 3.80001 21.8 4.10001 20.4C4.10001 20.4 4.20001 20.5 4.30001 20.5L10.7 24.2C10.9 24.3 11 24.3 11.2 24.3C11.4 24.3 11.6 24.3 11.7 24.2L19.5 19.7V22.8L13 26.6C11.6 27.4 10 27.6 8.50001 27.2C6.90001 26.8 5.60001 25.8 4.80001 24.4ZM3.10001 10.5C3.80001 9.3 4.90001 8.4 6.20001 7.9V8.1V15.5C6.20001 15.7 6.20001 15.9 6.30001 16C6.40001 16.2 6.50001 16.3 6.70001 16.4L14.5 20.9L11.8 22.5L5.40001 18.8C4.00001 18 3.00001 16.7 2.60001 15.2C2.20001 13.7 2.30001 11.9 3.10001 10.5ZM25.2 15.6L17.4 11.1L20.1 9.5L26.5 13.2C27.5 13.8 28.3 14.6 28.8 15.6C29.3 16.6 29.6 17.7 29.5 18.9C29.4 20 29 21.1 28.3 22C27.6 22.9 26.7 23.6 25.6 24V16.4C25.6 16.2 25.6 16 25.5 15.9C25.5 15.9 25.4 15.7 25.2 15.6ZM27.9 11.6C27.9 11.6 27.8 11.5 27.7 11.5L21.3 7.8C21.1 7.7 21 7.7 20.8 7.7C20.6 7.7 20.4 7.7 20.3 7.8L12.5 12.3V9.2L19 5.4C20 4.8 21.1 4.6 22.3 4.6C23.4 4.6 24.5 5 25.5 5.7C26.4 6.4 27.2 7.3 27.6 8.3C28 9.3 28.1 10.5 27.9 11.6ZM11.1 17.2L8.40001 15.6V8.1C8.40001 7 8.70001 5.8 9.30001 4.9C9.90001 3.9 10.8 3.2 11.8 2.7C12.8 2.2 14 2 15.1 2.2C16.2 2.3 17.3 2.8 18.2 3.5C18.2 3.5 18.1 3.6 18 3.6L11.6 7.3C11.4 7.4 11.3 7.5 11.2 7.7C11.1 7.9 11.1 8 11.1 8.2V17.2ZM12.5 14L16 12L19.5 14V18L16 20L12.5 18V14Z" fill="black"/>
</svg>
