<svg width="100" height="40" viewBox="0 0 240 48" fill="none" xmlns="http://www.w3.org/2000/svg">
<path d="M84.8813 29.5067C85.8292 27.3848 87.8156 25.9402 90.4345 25.9402C93.0535 25.9402 94.9949 27.159 95.8076 29.5067H84.8813ZM102.038 32.2158C102.038 25.7141 97.2969 20.5222 90.3895 20.5222C83.8878 20.5222 78.6505 25.7591 78.6505 32.2611C78.6505 38.7625 83.5271 43.9998 90.5703 43.9998C95.4481 43.9998 98.9565 41.6468 100.931 38.2738L96.0244 35.3483C94.9837 37.3452 92.9857 38.582 90.6153 38.582C87.3645 38.582 85.333 36.9563 84.6104 34.4731H102.038V32.2158ZM227.964 32.2158C227.964 28.8748 225.526 26.1658 222.186 26.1658C218.754 26.1658 216.135 28.7394 216.135 32.2158C216.135 35.6922 218.754 38.3111 222.186 38.3111C225.526 38.3111 227.964 35.557 227.964 32.2158ZM210.085 32.2611C210.085 24.2701 215.955 20.5222 221.057 20.5222C223.991 20.5222 226.294 21.6058 227.784 23.1858V10.5894H233.969V43.5481H227.784V41.0202C226.294 42.781 223.901 43.9998 220.967 43.9998C216.18 43.9998 210.085 40.2071 210.085 32.2611ZM205.541 17.5379C207.585 17.5379 209.242 15.8814 209.242 13.8378C209.242 11.7942 207.585 10.1377 205.541 10.1377C203.498 10.1377 201.842 11.7942 201.842 13.8378C201.842 15.8814 203.498 17.5379 205.541 17.5379ZM202.449 20.9739H208.634V43.5481H202.449V26.9788L200.204 26.9785L202.449 20.9739ZM185.971 20.9739H192.112V24.6761C193.24 22.3284 195.272 20.9739 198.342 20.9739H200.826L198.583 26.9785H196.897C193.602 26.9785 192.157 28.6943 192.157 32.893V43.5481H185.971V20.9739ZM151.174 27.0689C151.174 17.6777 158.263 10.1377 168.015 10.1377C172.893 10.1377 176.995 11.8942 179.965 14.6934C181.174 15.8323 182.195 17.1442 183.004 18.5808L177.496 21.9217C175.465 18.1741 172.349 16.2327 168.06 16.2327C162.055 16.2327 157.405 21.1544 157.405 27.0689C157.405 33.1189 161.965 37.9044 168.286 37.9044C173.072 37.9044 176.457 35.1957 177.632 30.9967H167.292V24.9921H184.404V27.5203C184.404 36.3697 178.083 43.9998 168.286 43.9998C157.992 43.9998 151.174 36.1892 151.174 27.0689ZM143.718 32.2158C143.718 28.8748 141.28 26.1658 137.939 26.1658C134.508 26.1658 131.889 28.7394 131.889 32.2158C131.889 35.6922 134.508 38.3111 137.939 38.3111C141.28 38.3111 143.718 35.557 143.718 32.2158ZM125.839 32.2611C125.839 24.2701 131.708 20.5222 136.81 20.5222C139.745 20.5222 142.048 21.6058 143.538 23.1858V10.5894H149.723V43.5481H143.538V41.0202C142.048 42.781 139.655 43.9998 136.72 43.9998C131.934 43.9998 125.839 40.2071 125.839 32.2611ZM103.484 20.9739H109.625V23.5021C111.069 21.6508 113.282 20.5222 115.855 20.5222C121.182 20.5222 124.388 23.9535 124.388 29.7776V43.5481H118.112V30.5903C118.112 27.5653 116.713 25.8045 113.959 25.8045C111.611 25.8045 109.67 27.4299 109.67 31.2222V43.5481H103.484V20.9739ZM52.9805 38.0853L58.7148 33.57C60.3399 36.3697 62.9135 37.9949 65.8478 37.9949C69.0539 37.9949 70.7697 35.9183 70.7697 33.6604C70.7697 30.9517 67.4732 30.0942 63.9518 29.01C59.5275 27.6558 54.6059 25.9402 54.6059 19.619C54.6059 14.3367 59.2116 10.1377 65.5772 10.1377C70.9502 10.1377 74.0203 12.1695 76.6843 14.9239L71.4917 18.8517C70.1375 16.8202 68.1961 15.7363 65.6222 15.7363C62.6877 15.7363 61.1079 17.3167 61.1079 19.3935C61.1079 21.9217 64.268 22.7801 67.7895 23.9535C72.2597 25.3981 77.3162 27.3848 77.3162 33.7061C77.3162 38.943 73.1622 43.9998 65.8932 43.9998C59.9339 43.9998 55.9607 41.4719 52.9805 38.0853Z" fill="#212F38"/>
<path d="M45.5802 4V30.3659H32.3972V43.5483H6.03156L6.03125 17.1827H19.2142V4H45.5802Z" fill="#9DD6E3"/>
<path d="M6.03125 43.5482H19.2142V30.3652H6.03125V43.5482Z" fill="#3F72AB"/>
<path d="M32.3965 30.3659H45.5795V17.1826H32.3965V30.3659Z" fill="#00A9D1"/>
<path d="M19.2148 17.183H32.3978V4H19.2148V17.183Z" fill="#00A9D1"/>
<path d="M19.2148 30.3656H32.3978V17.1826H19.2148V30.3656Z" fill="#2191C4"/>
<path d="M32.3965 17.183H45.5795V4H32.3965V17.183Z" fill="#3F72AB"/>
</svg>
