<svg width="100" height="40" viewBox="0 0 160 72" fill="none" xmlns="http://www.w3.org/2000/svg">
<path d="M86.2911 12.9467L75.6933 15.2267V6.61339L86.2911 4.37561V12.9467Z" fill="#635BFF"/>
<path fill-rule="evenodd" clip-rule="evenodd" d="M108.331 17.7178C104.193 17.7178 101.533 19.66 100.056 21.0112L99.5067 18.3934H90.2178V67.6245L100.773 65.3867L100.816 53.4378C102.336 54.5356 104.573 56.0978 108.289 56.0978C115.847 56.0978 122.729 50.0178 122.729 36.6334C122.687 24.3889 115.72 17.7178 108.331 17.7178ZM105.798 46.8089C103.307 46.8089 101.829 45.9223 100.816 44.8245L100.773 29.16C101.871 27.9356 103.391 27.0912 105.798 27.0912C109.64 27.0912 112.3 31.3978 112.3 36.9289C112.3 42.5867 109.682 46.8089 105.798 46.8089Z" fill="#635BFF"/>
<path fill-rule="evenodd" clip-rule="evenodd" d="M156 37.0556C156 26.2467 150.764 17.7178 140.758 17.7178C130.709 17.7178 124.629 26.2467 124.629 36.9712C124.629 49.68 131.807 56.0978 142.109 56.0978C147.133 56.0978 150.933 54.9578 153.804 53.3534V44.9089C150.933 46.3445 147.64 47.2312 143.46 47.2312C139.364 47.2312 135.733 45.7956 135.269 40.8134H155.916C155.916 40.5807 155.931 40.052 155.948 39.4429C155.972 38.6153 156 37.6393 156 37.0556ZM135.142 33.0445C135.142 28.2734 138.056 26.2889 140.716 26.2889C143.291 26.2889 146.036 28.2734 146.036 33.0445H135.142Z" fill="#635BFF"/>
<path d="M86.2911 18.4356H75.6933V55.38H86.2911V18.4356Z" fill="#635BFF"/>
<path d="M63.66 18.4356L64.3355 21.5601C66.8267 17.0001 71.7667 17.929 73.1178 18.4356V28.1467C71.8089 27.6823 67.5867 27.0912 65.0956 30.3423V55.3801H54.54V18.4356H63.66Z" fill="#635BFF"/>
<path d="M43.2244 9.27339L32.9222 11.4689L32.88 45.289C32.88 51.5378 37.5667 56.1401 43.8156 56.1401C47.2778 56.1401 49.8111 55.5067 51.2045 54.7467V46.1756C49.8533 46.7245 43.1822 48.6667 43.1822 42.4178V27.429H51.2045V18.4356H43.1822L43.2244 9.27339Z" fill="#635BFF"/>
<path d="M18.2711 26.88C16.0333 26.88 14.6822 27.5134 14.6822 29.16C14.6822 30.9579 17.0075 31.7488 19.8923 32.73C24.5951 34.3295 30.7849 36.4348 30.8111 44.2334C30.8111 51.7911 24.7733 56.14 15.9911 56.14C12.36 56.14 8.39111 55.4223 4.46444 53.7334V43.6845C8.01111 45.6267 12.4867 47.0623 15.9911 47.0623C18.3556 47.0623 20.0444 46.4289 20.0444 44.4867C20.0444 42.4952 17.5238 41.5849 14.4807 40.486C9.84622 38.8123 4 36.7011 4 29.6667C4 22.1934 9.7 17.7178 18.2711 17.7178C21.7756 17.7178 25.2378 18.2667 28.7422 19.66V29.5823C25.5333 27.8512 21.48 26.88 18.2711 26.88Z" fill="#635BFF"/>
</svg>
