<svg width="100" height="40" viewBox="0 0 184 48" fill="none" xmlns="http://www.w3.org/2000/svg">
<path d="M91.8004 14C84.9004 14 79.9254 18.5 79.9254 25.25C79.9254 32 85.5254 36.5 92.4254 36.5C96.5941 36.5 100.269 34.85 102.544 32.0688L97.7629 29.3063C96.5004 30.6875 94.5816 31.4938 92.4254 31.4938C89.4316 31.4938 86.8879 29.9313 85.9441 27.4313H103.457C103.594 26.7313 103.675 26.0063 103.675 25.2438C103.675 18.5 98.7004 14 91.8004 14ZM85.8879 23.0625C86.6691 20.5688 88.8066 19 91.7941 19C94.7879 19 96.9254 20.5688 97.7004 23.0625H85.8879ZM159.1 14C152.2 14 147.225 18.5 147.225 25.25C147.225 32 152.825 36.5 159.725 36.5C163.894 36.5 167.569 34.85 169.844 32.0688L165.063 29.3063C163.8 30.6875 161.882 31.4938 159.725 31.4938C156.732 31.4938 154.188 29.9313 153.244 27.4313H170.757C170.894 26.7313 170.975 26.0063 170.975 25.2438C170.975 18.5 166 14 159.1 14ZM153.194 23.0625C153.975 20.5688 156.113 19 159.1 19C162.094 19 164.232 20.5688 165.007 23.0625H153.194ZM128.8 25.25C128.8 29 131.25 31.5 135.05 31.5C137.625 31.5 139.557 30.3313 140.55 28.425L145.35 31.1938C143.363 34.5063 139.638 36.5 135.05 36.5C128.144 36.5 123.175 32 123.175 25.25C123.175 18.5 128.15 14 135.05 14C139.638 14 143.357 15.9938 145.35 19.3063L140.55 22.075C139.557 20.1688 137.625 19 135.05 19C131.257 19 128.8 21.5 128.8 25.25ZM180.35 7.125V35.875H174.725V7.125H180.35ZM26.7441 4L49.8379 44H3.65039L26.7441 4ZM84.4817 7.125L67.1629 37.125L49.8441 7.125H56.3379L67.1629 25.875L77.9879 7.125H84.4817ZM121.3 14.625V20.6813C120.675 20.5 120.013 20.375 119.3 20.375C115.669 20.375 113.05 22.875 113.05 26.625V35.875H107.425V14.625H113.05V20.375C113.05 17.2 116.744 14.625 121.3 14.625Z" fill="black"/>
</svg>